<svg width="20" height="20" viewBox="0 0 20 20" fill="none" xmlns="http://www.w3.org/2000/svg">
<path d="M3.83984 4.77928C2 6.61912 2 9.61522 3.83984 11.4531L8.93359 16.5508C8.9668 16.584 9.01172 16.6015 9.05859 16.6015C9.10547 16.6015 9.15039 16.584 9.18359 16.5508L9.9043 15.8301C9.9371 15.7971 9.95551 15.7525 9.95551 15.706C9.95551 15.6595 9.9371 15.615 9.9043 15.582L4.81055 10.4844C4.17773 9.85154 3.83008 9.00975 3.83008 8.11522C3.83008 7.22069 4.17773 6.37889 4.81055 5.74803C5.44336 5.11522 6.28516 4.76756 7.17773 4.76756C8.07227 4.76756 8.91211 5.11522 9.54492 5.74803L14.7383 10.9433L15.5801 11.7851C16.3672 12.5722 16.3672 13.8515 15.5801 14.6387C15.1992 15.0195 14.6934 15.2285 14.1543 15.2285C13.6152 15.2285 13.1094 15.0195 12.7285 14.6387L7.57617 9.48436C7.44727 9.3535 7.375 9.18162 7.375 8.99803V8.99608C7.375 8.81248 7.44727 8.64256 7.57617 8.51365C7.70703 8.3828 7.87891 8.31248 8.0625 8.31248C8.24414 8.31248 8.41602 8.38475 8.54492 8.51365L12.7539 12.7265C12.7871 12.7597 12.832 12.7773 12.8789 12.7773C12.9258 12.7773 12.9707 12.7597 13.0039 12.7265L13.7246 12.0058C13.7574 11.9729 13.7758 11.9283 13.7758 11.8818C13.7758 11.8353 13.7574 11.7907 13.7246 11.7578L9.51367 7.54686C9.125 7.15819 8.60938 6.94529 8.06055 6.94529C7.51172 6.94529 6.99414 7.16014 6.60742 7.54686C5.80469 8.34959 5.80664 9.65428 6.60742 10.457L7.10938 10.957L11.7598 15.6094C12.0737 15.9251 12.4471 16.1754 12.8585 16.3457C13.2699 16.5161 13.711 16.603 14.1562 16.6015C15.0605 16.6015 15.9102 16.248 16.5488 15.6094C17.209 14.9472 17.5391 14.0801 17.5391 13.2129C17.5391 12.3457 17.209 11.4785 16.5488 10.8183L10.5137 4.77928C9.62305 3.89061 8.4375 3.39842 7.17773 3.39842C5.91602 3.39647 4.73047 3.88865 3.83984 4.77928Z" fill="black"/>
</svg>
